<?xml version="1.0" encoding="UTF-8"?>
<svg width="16px" height="16px" viewBox="0 0 16 16" version="1.1" xmlns="http://www.w3.org/2000/svg" xmlns:xlink="http://www.w3.org/1999/xlink">
    <!-- Generator: Sketch 52.6 (67491) - http://www.bohemiancoding.com/sketch -->
    <title>icons_instagram </title>
    <desc>Created with Sketch.</desc>
    <g id="Symbols" stroke="none" stroke-width="1" fill="none" fill-rule="evenodd">
        <g id="header-/-sales-portal-/-coming-soon-page" transform="translate(-1271.000000, -32.000000)" fill="#4C83FF">
            <g id="social-media">
                <g transform="translate(1171.000000, 28.000000)">
                    <g id="icons-/-general-/-icon_instagram" transform="translate(96.000000, 0.000000)">
                        <g id="icon_instagram" transform="translate(4.000000, 4.000000)">
                            <path d="M12.8888889,2.66666667 C12.6438545,2.66666667 12.4444444,2.8660767 12.4444444,3.11111111 C12.4444444,3.35614553 12.6438545,3.55555556 12.8888889,3.55555556 C13.1339591,3.55555556 13.3333333,3.35618128 13.3333333,3.11111111 C13.3333333,2.86604094 13.1339591,2.66666667 12.8888889,2.66666667 Z" id="Path" fill-rule="nonzero"></path>
                            <path d="M8,4.556375 C6.1011875,4.556375 4.556375,6.1011875 4.556375,8 C4.556375,9.8988125 6.1011875,11.4436563 8,11.4436563 C9.89884375,11.4436563 11.4436563,9.89884375 11.4436563,8.00003125 C11.4436563,6.10121875 9.89884375,4.556375 8,4.556375 Z" id="Path" fill-rule="nonzero"></path>
                            <path d="M11.6138437,0 L4.38615625,0 C1.967625,0 0,1.967625 0,4.3861875 L0,11.6138438 C0,14.0324062 1.967625,16 4.38615625,16 L11.6138438,16 C14.0324062,16 16,14.032375 16,11.6138437 L16,4.3861875 C16,1.967625 14.0324062,0 11.6138437,0 Z M8,12.3885 C5.58015625,12.3885 3.61153125,10.4198437 3.61153125,8 C3.61153125,5.58015625 5.5801875,3.6115625 8,3.6115625 C10.4198125,3.6115625 12.3885,5.5801875 12.3885,8 C12.3885,10.4198125 10.4198125,12.3885 8,12.3885 Z M12.8888681,4.44443403 C12.1536806,4.44443403 11.5555556,3.84630903 11.5555556,3.11112153 C11.5555556,2.37593403 12.1536806,1.77777778 12.8888681,1.77777778 C13.6240556,1.77777778 14.2221806,2.37590278 14.2221806,3.11109028 C14.2221806,3.84627778 13.6240556,4.44443403 12.8888681,4.44443403 Z" id="Shape" fill-rule="nonzero"></path>
                        </g>
                    </g>
                </g>
            </g>
        </g>
    </g>
</svg>