<?xml version="1.0" encoding="UTF-8"?>
<svg width="21px" height="16px" viewBox="0 0 21 16" version="1.1" xmlns="http://www.w3.org/2000/svg" xmlns:xlink="http://www.w3.org/1999/xlink">
    <!-- Generator: Sketch 52.6 (67491) - http://www.bohemiancoding.com/sketch -->
    <title>icon_twitter</title>
    <desc>Created with Sketch.</desc>
    <g id="Symbols" stroke="none" stroke-width="1" fill="none" fill-rule="evenodd">
        <g id="header-/-sales-portal-/-coming-soon-page" transform="translate(-1220.000000, -33.000000)" fill="#4C83FF">
            <g id="social-media">
                <g transform="translate(1171.000000, 28.000000)">
                    <g id="icons-/-general-/-icon_twitter" transform="translate(48.000000, 0.000000)">
                        <g id="icon_twitter" transform="translate(1.000000, 5.000000)">
                            <path d="M20.239474,2.01796651 C19.5072932,2.33596347 18.7194192,2.54973516 17.8929973,2.64667275 C18.7373699,2.15273059 19.3847452,1.37237139 19.6895616,0.440474886 C18.8997315,0.898557078 18.0260164,1.23031963 17.0947671,1.40823135 C16.3499288,0.634234399 15.2887671,0.150818874 14.1134575,0.150818874 C11.8591507,0.150818874 10.030137,1.93375342 10.030137,4.13463014 C10.030137,4.44742161 10.0658082,4.75176865 10.1358849,5.04350685 C6.74182466,4.87716286 3.7311726,3.29007002 1.71781918,0.879585997 C1.36582466,1.46826788 1.16468493,2.1516895 1.16468493,2.88253881 C1.16468493,4.26418874 1.8853589,5.48574125 2.98115616,6.19877626 C2.31076712,6.17772298 1.68214795,5.99969559 1.13016438,5.69962861 L1.13016438,5.7501796 C1.13016438,7.68152816 2.5380274,9.29175647 4.40685479,9.65822222 C4.06429589,9.74879756 3.70390137,9.79830746 3.33096438,9.79830746 C3.06803288,9.79830746 2.81246575,9.7741309 2.56311233,9.7267032 C3.08264658,11.3105571 4.59119452,12.4625875 6.3793589,12.4942831 C4.98093151,13.5641826 3.21992329,14.2002922 1.30610411,14.2002922 C0.976087671,14.2002922 0.651364384,14.1813212 0.330783562,14.1445358 C2.13989041,15.2755129 4.28534247,15.9357991 6.5930411,15.9357991 C14.1060932,15.9357991 18.2146137,9.86158295 18.2146137,4.59606697 L18.2031068,4.08003044 C18.9991507,3.5196895 19.6916329,2.8183379 20.239474,2.01796651 Z" id="Path" fill-rule="nonzero"></path>
                        </g>
                    </g>
                </g>
            </g>
        </g>
    </g>
</svg>